# xmcd
#
# Track frame offsets: 
#        150
#        20890
#        38082
#        53842
#        66100
#        80500
#        102460
#        120845
#        134760
#        147370
#
# Disc length: 2133 seconds
#
# Revision: 1
# Processed by: cddbd v1.5.2PL0 Copyright (c) Steve Scherf et al.
# Submitted via: ExactAudioCopy v0.99pb4
#
DISCID=8e08530a
DTITLE=Various Artist - Discovery Sampler Country Volume One
DYEAR=1900
DGENRE=Country
TTITLE0=Jon Randall - What you don't know
TTITLE1=Jon Randall - If blue tears were silver
TTITLE2=Lee Roy Parnell - If the house is rockin'
TTITLE3=Lee Roy Parnell - A little bit of you
TTITLE4=Michael James - My heart knows its way home
TTITLE5=Michael James - One of these days
TTITLE6=Shaver - I love you 'till the cows come home
TTITLE7=Shaver - Live Forever
TTITLE8=Kenny Chesney - Bigger the fool
TTITLE9=Kenny Chesney - Honey would you stand by me
EXTD=
EXTT0=
EXTT1=
EXTT2=
EXTT3=
EXTT4=
EXTT5=
EXTT6=
EXTT7=
EXTT8=
EXTT9=
PLAYORDER=
